 <svg xmlns="http://www.w3.org/2000/svg"
                                                xmlns:xlink="http://www.w3.org/1999/xlink" viewBox="0 0 1080 1080" width="1080"
                                                height="1080"
                                                style="width: 100%; height: 100%; transform: translate3d(0px, 0px, 0px); content-visibility: visible;"
                                                preserveAspectRatio="xMidYMid meet">
                                                <defs>
                                                    <clipPath id="__lottie_element_578">
                                                        <rect width="1080" height="1080" x="0" y="0"></rect>
                                                    </clipPath>
                                                </defs>
                                                <g clip-path="url(#__lottie_element_578)">
                                                    <g style="display: none;">
                                                        <g>
                                                            <path></path>
                                                        </g>
                                                    </g>
                                                    <g style="display: none;">
                                                        <g>
                                                            <path></path>
                                                        </g>
                                                    </g>
                                                    <g style="display: none;">
                                                        <g>
                                                            <path></path>
                                                        </g>
                                                    </g>
                                                    <g style="display: none;">
                                                        <g>
                                                            <path></path>
                                                        </g>
                                                    </g>
                                                    <g style="display: none;">
                                                        <g>
                                                            <path></path>
                                                        </g>
                                                    </g>
                                                    <g style="display: none;">
                                                        <g>
                                                            <path></path>
                                                        </g>
                                                    </g>
                                                    <g style="display: none;">
                                                        <g>
                                                            <path></path>
                                                        </g>
                                                    </g>
                                                    <g style="display: none;">
                                                        <g>
                                                            <path></path>
                                                        </g>
                                                    </g>
                                                    <g style="display: none;"
                                                        transform="matrix(2.619142770767212,0,0,2.619142770767212,110.15826416015625,-4101.31396484375)"
                                                        opacity="1">
                                                        <g opacity="1" transform="matrix(1,0,0,1,0,0)">
                                                            <path fill="rgb(40,209,180)" fill-opacity="1"
                                                                d=" M202.81399536132812,1808.323974609375 C202.81399536132812,1808.323974609375 202.81399536132812,1808.323974609375 202.81399536132812,1808.323974609375 C202.81399536132812,1808.323974609375 160.38800048828125,1850.7509765625 160.38800048828125,1850.7509765625 C160.38800048828125,1850.7509765625 117.96099853515625,1808.323974609375 117.96099853515625,1808.323974609375 C117.96099853515625,1808.323974609375 117.96099853515625,1808.323974609375 117.96099853515625,1808.323974609375 C141.39199829101562,1784.8929443359375 179.38299560546875,1784.8929443359375 202.81399536132812,1808.323974609375z">
                                                            </path>
                                                        </g>
                                                    </g>
                                                    <g style="display: none;"
                                                        transform="matrix(2.619142770767212,0,0,2.619142770767212,110.15995788574219,-4101.31396484375)"
                                                        opacity="1">
                                                        <g opacity="1" transform="matrix(1,0,0,1,0,0)">
                                                            <path fill="rgb(8,44,175)" fill-opacity="1"
                                                                d=" M201.96099853515625,1807.81005859375 C201.96099853515625,1807.81005859375 159.53500366210938,1765.383056640625 159.53500366210938,1765.383056640625 C159.53500366210938,1765.383056640625 201.96099853515625,1722.95703125 201.96099853515625,1722.95703125 C201.96099853515625,1722.95703125 244.38800048828125,1765.383056640625 244.38800048828125,1765.383056640625 C244.38800048828125,1765.383056640625 201.96099853515625,1807.81005859375 201.96099853515625,1807.81005859375z">
                                                            </path>
                                                        </g>
                                                    </g>
                                                    <g style="display: none;"
                                                        transform="matrix(2.619142770767212,0,0,2.619142770767212,110.16035461425781,-4101.31591796875)"
                                                        opacity="1">
                                                        <g opacity="1" transform="matrix(1,0,0,1,0,0)">
                                                            <path fill="rgb(255,255,255)" fill-opacity="1"
                                                                d=" M76.16799926757812,1765.31005859375 C76.16799926757812,1765.31005859375 118.59500122070312,1722.883056640625 118.59500122070312,1722.883056640625 C118.59500122070312,1722.883056640625 202.59500122070312,1723.31005859375 202.59500122070312,1723.31005859375 C202.59500122070312,1723.31005859375 118.59500122070312,1807.7359619140625 118.59500122070312,1807.7359619140625 C118.59500122070312,1807.7359619140625 76.16799926757812,1765.31005859375 76.16799926757812,1765.31005859375z">
                                                            </path>
                                                        </g>
                                                    </g>
                                                    <g style="display: block;"
                                                        transform="matrix(0,0,0,0,744.7283935546875,522.126220703125)" opacity="1">
                                                        <g opacity="1" transform="matrix(1,0,0,1,172.4770050048828,-8.88700008392334)">
                                                            <path fill="rgb(255,255,255)" fill-opacity="1"
                                                                d=" M0,-16.038999557495117 C8.851923942565918,-16.038999557495117 16.038999557495117,-8.851923942565918 16.038999557495117,0 C16.038999557495117,8.851923942565918 8.851923942565918,16.038999557495117 0,16.038999557495117 C-8.851923942565918,16.038999557495117 -16.038999557495117,8.851923942565918 -16.038999557495117,0 C-16.038999557495117,-8.851923942565918 -8.851923942565918,-16.038999557495117 0,-16.038999557495117z">
                                                            </path>
                                                        </g>
                                                    </g>
                                                    <g style="display: none;"
                                                        transform="matrix(0,0,0,0,529.9383544921875,743.9662475585938)" opacity="1">
                                                        <g opacity="1" transform="matrix(1,0,0,1,172.4770050048828,-8.88700008392334)">
                                                            <path fill="rgb(255,255,255)" fill-opacity="1"
                                                                d=" M0,-16.038999557495117 C8.851923942565918,-16.038999557495117 16.038999557495117,-8.851923942565918 16.038999557495117,0 C16.038999557495117,8.851923942565918 8.851923942565918,16.038999557495117 0,16.038999557495117 C-8.851923942565918,16.038999557495117 -16.038999557495117,8.851923942565918 -16.038999557495117,0 C-16.038999557495117,-8.851923942565918 -8.851923942565918,-16.038999557495117 0,-16.038999557495117z">
                                                            </path>
                                                        </g>
                                                    </g>
                                                    <g style="display: none;">
                                                        <g>
                                                            <path></path>
                                                        </g>
                                                    </g>
                                                    <g style="display: block;"
                                                        transform="matrix(5.170000076293945,0,0,5.170000076293945,435.6900939941406,723.273681640625)"
                                                        opacity="1">
                                                        <g opacity="1" transform="matrix(1,0,0,1,0,0)">
                                                            <path fill="rgb(40,209,180)" fill-opacity="1"
                                                                d=" M5.729000091552734,-7.88700008392334 C5.729000091552734,-7.88700008392334 -16.777000427246094,-20.937000274658203 -16.777000427246094,-20.937000274658203 C-15.53499984741211,-16.75 -12.33899974822998,-5.5920000076293945 -9.404000282287598,4.1579999923706055 C-0.4959999918937683,9.836000442504883 11.692999839782715,17.70400047302246 16.777000427246094,20.937000274658203 C16.777000427246094,20.937000274658203 5.729000091552734,-7.88700008392334 5.729000091552734,-7.88700008392334z">
                                                            </path>
                                                        </g>
                                                    </g>
                                                    <g style="display: block;"
                                                        transform="matrix(5.170000076293945,0,0,5.170000076293945,584.6636352539062,689.405029296875)"
                                                        opacity="1">
                                                        <g opacity="1" transform="matrix(1,0,0,1,0,0)">
                                                            <path fill="rgb(8,44,175)" fill-opacity="1"
                                                                d=" M-3.2119998931884766,-26.81100082397461 C-3.2119998931884766,-26.81100082397461 -13.95199966430664,-24.131999969482422 -13.95199966430664,-24.131999969482422 C-13.95199966430664,-24.131999969482422 -19.711999893188477,-2.763000011444092 -19.711999893188477,-2.763000011444092 C-19.711999893188477,-2.763000011444092 -8.37600040435791,26.81100082397461 -8.37600040435791,26.81100082397461 C-1.8880000114440918,22.461999893188477 12.803000450134277,12.529000282287598 19.711999893188477,7.854000091552734 C19.711999893188477,7.854000091552734 -3.2119998931884766,-26.81100082397461 -3.2119998931884766,-26.81100082397461z">
                                                            </path>
                                                        </g>
                                                    </g>
                                                    <g style="display: block;"
                                                        transform="matrix(5.170000076293945,0,0,5.170000076293945,630.8369140625,486.792724609375)"
                                                        opacity="1">
                                                        <g opacity="1" transform="matrix(1,0,0,1,0,0)">
                                                            <path fill="rgb(255,255,255)" fill-opacity="1"
                                                                d=" M-17.679000854492188,-43.29600143432617 C-17.679000854492188,-43.29600143432617 -9.652999877929688,9.503000259399414 -9.652999877929688,9.503000259399414 C-9.652999877929688,9.503000259399414 12.694999694824219,43.29600143432617 12.694999694824219,43.29600143432617 C13.96399974822998,37.84199905395508 16.591999053955078,26.493000030517578 17.679000854492188,22.808000564575195 C10.748000144958496,9.857999801635742 -11.432000160217285,-31.66699981689453 -17.679000854492188,-43.29600143432617z">
                                                            </path>
                                                        </g>
                                                    </g>
                                                    <g style="display: block;"
                                                        transform="matrix(5.170000076293945,0,0,5.170000076293945,495.35186767578125,404.6310729980469)"
                                                        opacity="1">
                                                        <g opacity="1" transform="matrix(1,0,0,1,0,0)">
                                                            <path fill="rgb(40,209,180)" fill-opacity="1"
                                                                d=" M2.377000093460083,27.05500030517578 C2.377000093460083,27.05500030517578 3.0360000133514404,27.235000610351562 3.0360000133514404,27.235000610351562 C3.0360000133514404,27.235000610351562 12.762999534606934,24.80900001525879 12.762999534606934,24.80900001525879 C12.762999534606934,24.80900001525879 4.85099983215332,-27.235000610351562 4.85099983215332,-27.235000610351562 C1.4190000295639038,-20.155000686645508 -6.185999870300293,-4.4770002365112305 -12.762999534606934,9.111000061035156 C-12.762999534606934,9.111000061035156 2.377000093460083,27.05500030517578 2.377000093460083,27.05500030517578z">
                                                            </path>
                                                        </g>
                                                    </g>
                                                    <g style="display: block;"
                                                        transform="matrix(5.170000076293945,0,0,5.170000076293945,423.6077880859375,565.8265380859375)"
                                                        opacity="1">
                                                        <g opacity="1" transform="matrix(1,0,0,1,0,0)">
                                                            <path fill="rgb(255,255,255)" fill-opacity="1"
                                                                d=" M8.362000465393066,18.4950008392334 C8.362000465393066,18.4950008392334 13.730999946594238,-1.4279999732971191 13.730999946594238,-1.4279999732971191 C13.730999946594238,-1.4279999732971191 -0.6679999828338623,-18.4950008392334 -0.6679999828338623,-18.4950008392334 C-6.002999782562256,-9.069000244140625 -11.192000389099121,0.7760000228881836 -13.730999946594238,5.684999942779541 C-13.730999946594238,5.684999942779541 8.362000465393066,18.4950008392334 8.362000465393066,18.4950008392334z">
                                                            </path>
                                                        </g>
                                                    </g>
                                                    <g style="display: block;"
                                                        transform="matrix(0,0,0,0,277.689697265625,883.2748413085938)" opacity="1">
                                                        <g opacity="1" transform="matrix(1,0,0,1,0,0)">
                                                            <path fill="rgb(40,209,180)" fill-opacity="1"
                                                                d=" M5.729000091552734,-7.88700008392334 C5.729000091552734,-7.88700008392334 -16.777000427246094,-20.937000274658203 -16.777000427246094,-20.937000274658203 C-15.53499984741211,-16.75 -12.33899974822998,-5.5920000076293945 -9.404000282287598,4.1579999923706055 C-0.4959999918937683,9.836000442504883 11.692999839782715,17.70400047302246 16.777000427246094,20.937000274658203 C16.777000427246094,20.937000274658203 5.729000091552734,-7.88700008392334 5.729000091552734,-7.88700008392334z">
                                                            </path>
                                                        </g>
                                                    </g>
                                                    <g style="display: block;" transform="matrix(0,0,0,0,710.6668701171875,879.40771484375)"
                                                        opacity="1">
                                                        <g opacity="1" transform="matrix(1,0,0,1,0,0)">
                                                            <path fill="rgb(8,44,175)" fill-opacity="1"
                                                                d=" M-3.2119998931884766,-26.81100082397461 C-3.2119998931884766,-26.81100082397461 -13.95199966430664,-24.131999969482422 -13.95199966430664,-24.131999969482422 C-13.95199966430664,-24.131999969482422 -19.711999893188477,-2.763000011444092 -19.711999893188477,-2.763000011444092 C-19.711999893188477,-2.763000011444092 -8.37600040435791,26.81100082397461 -8.37600040435791,26.81100082397461 C-1.8880000114440918,22.461999893188477 12.803000450134277,12.529000282287598 19.711999893188477,7.854000091552734 C19.711999893188477,7.854000091552734 -3.2119998931884766,-26.81100082397461 -3.2119998931884766,-26.81100082397461z">
                                                            </path>
                                                        </g>
                                                    </g>
                                                    <g style="display: block;"
                                                        transform="matrix(0,0,0,0,866.8370971679688,298.7908630371094)" opacity="1">
                                                        <g opacity="1" transform="matrix(1,0,0,1,0,0)">
                                                            <path fill="rgb(255,255,255)" fill-opacity="1"
                                                                d=" M-17.679000854492188,-43.29600143432617 C-17.679000854492188,-43.29600143432617 -9.652999877929688,9.503000259399414 -9.652999877929688,9.503000259399414 C-9.652999877929688,9.503000259399414 12.694999694824219,43.29600143432617 12.694999694824219,43.29600143432617 C13.96399974822998,37.84199905395508 16.591999053955078,26.493000030517578 17.679000854492188,22.808000564575195 C10.748000144958496,9.857999801635742 -11.432000160217285,-31.66699981689453 -17.679000854492188,-43.29600143432617z">
                                                            </path>
                                                        </g>
                                                    </g>
                                                    <g style="display: block;"
                                                        transform="matrix(0,0,0,0,397.3545227050781,176.62892150878906)" opacity="1">
                                                        <g opacity="1" transform="matrix(1,0,0,1,0,0)">
                                                            <path fill="rgb(40,209,180)" fill-opacity="1"
                                                                d=" M2.377000093460083,27.05500030517578 C2.377000093460083,27.05500030517578 3.0360000133514404,27.235000610351562 3.0360000133514404,27.235000610351562 C3.0360000133514404,27.235000610351562 12.762999534606934,24.80900001525879 12.762999534606934,24.80900001525879 C12.762999534606934,24.80900001525879 4.85099983215332,-27.235000610351562 4.85099983215332,-27.235000610351562 C1.4190000295639038,-20.155000686645508 -6.185999870300293,-4.4770002365112305 -12.762999534606934,9.111000061035156 C-12.762999534606934,9.111000061035156 2.377000093460083,27.05500030517578 2.377000093460083,27.05500030517578z">
                                                            </path>
                                                        </g>
                                                    </g>
                                                    <g style="display: block;"
                                                        transform="matrix(0,0,0,0,231.6094970703125,429.8244934082031)" opacity="1">
                                                        <g opacity="1" transform="matrix(1,0,0,1,0,0)">
                                                            <path fill="rgb(255,255,255)" fill-opacity="1"
                                                                d=" M8.362000465393066,18.4950008392334 C8.362000465393066,18.4950008392334 13.730999946594238,-1.4279999732971191 13.730999946594238,-1.4279999732971191 C13.730999946594238,-1.4279999732971191 -0.6679999828338623,-18.4950008392334 -0.6679999828338623,-18.4950008392334 C-6.002999782562256,-9.069000244140625 -11.192000389099121,0.7760000228881836 -13.730999946594238,5.684999942779541 C-13.730999946594238,5.684999942779541 8.362000465393066,18.4950008392334 8.362000465393066,18.4950008392334z">
                                                            </path>
                                                        </g>
                                                    </g>
                                                </g>
                                            </svg>