<svg
                                                xmlns="http://www.w3.org/2000/svg" xmlns:xlink="http://www.w3.org/1999/xlink"
                                                viewBox="0 0 1080 1080" width="1080" height="1080"
                                                style="width: 100%; height: 100%; transform: translate3d(0px, 0px, 0px); content-visibility: visible;"
                                                preserveAspectRatio="xMidYMid meet">
                                                <defs>
                                                    <clipPath id="__lottie_element_251">
                                                        <rect width="1080" height="1080" x="0" y="0"></rect>
                                                    </clipPath>
                                                </defs>
                                                <g clip-path="url(#__lottie_element_251)">
                                                    <g style="display: none;">
                                                        <g>
                                                            <g>
                                                                <g>
                                                                    <path></path>
                                                                </g>
                                                            </g>
                                                        </g>
                                                    </g>
                                                    <g style="display: none;">
                                                        <g>
                                                            <path></path>
                                                        </g>
                                                    </g>
                                                    <g style="display: none;">
                                                        <g>
                                                            <path></path>
                                                        </g>
                                                    </g>
                                                    <g style="display: none;">
                                                        <g>
                                                            <path></path>
                                                        </g>
                                                    </g>
                                                    <g style="display: none;">
                                                        <g>
                                                            <path></path>
                                                        </g>
                                                    </g>
                                                    <g style="display: none;">
                                                        <g>
                                                            <path></path>
                                                        </g>
                                                    </g>
                                                    <g style="display: none;">
                                                        <g>
                                                            <path></path>
                                                        </g>
                                                    </g>
                                                    <g style="display: none;">
                                                        <g>
                                                            <path></path>
                                                        </g>
                                                    </g>
                                                    <g style="display: none;">
                                                        <g>
                                                            <path></path>
                                                        </g>
                                                    </g>
                                                    <g style="display: none;">
                                                        <g>
                                                            <path></path>
                                                        </g>
                                                    </g>
                                                    <g style="display: none;">
                                                        <g>
                                                            <path></path>
                                                        </g>
                                                    </g>
                                                    <g style="display: none;">
                                                        <g>
                                                            <path></path>
                                                        </g>
                                                    </g>
                                                    <g style="display: none;">
                                                        <g>
                                                            <path></path>
                                                        </g>
                                                    </g>
                                                    <g style="display: none;">
                                                        <g>
                                                            <path></path>
                                                        </g>
                                                    </g>
                                                    <g style="display: none;">
                                                        <g>
                                                            <path></path>
                                                        </g>
                                                    </g>
                                                    <g style="display: none;">
                                                        <g>
                                                            <path></path>
                                                        </g>
                                                    </g>
                                                    <g style="display: none;">
                                                        <g>
                                                            <path></path>
                                                        </g>
                                                    </g>
                                                    <g style="display: none;">
                                                        <g>
                                                            <path></path>
                                                        </g>
                                                    </g>
                                                    <g style="display: block;"
                                                        transform="matrix(0.9900000095367432,0,0,0.964739978313446,553.0410766601562,520.198486328125)"
                                                        opacity="1">
                                                        <g opacity="1" transform="matrix(1,0,0,1,0,0)">
                                                            <g opacity="1" transform="matrix(1,0,0,1,0,0)">
                                                                <g opacity="1" transform="matrix(1,0,0,1,0,0)">
                                                                    <path fill="rgb(54,208,180)" fill-opacity="1"
                                                                        d=" M-15.192999839782715,154.83399963378906 C-15.192999839782715,154.83399963378906 105.62699890136719,264.1629943847656 105.62699890136719,264.1629943847656 C67.10199737548828,327.9020080566406 -18.22100067138672,349.7409973144531 -84.947998046875,312.9410095214844 C-107.16799926757812,300.68701171875 -123.18399810791016,285.38800048828125 -136.01300048828125,264.1629943847656 C-136.01300048828125,264.1629943847656 -15.192999839782715,154.83399963378906 -15.192999839782715,154.83399963378906z">
                                                                    </path>
                                                                </g>
                                                            </g>
                                                        </g>
                                                    </g>
                                                    <g style="display: block;"
                                                        transform="matrix(0.9900000095367432,0,0,0.9789400100708008,553.041015625,518)"
                                                        opacity="1">
                                                        <g opacity="1" transform="matrix(1,0,0,1,0,0)">
                                                            <path fill="rgb(14,50,172)" fill-opacity="1"
                                                                d=" M109.59500122070312,154.83399963378906 C109.59500122070312,154.83399963378906 -139.97999572753906,154.83399963378906 -139.97999572753906,154.83399963378906 C-139.97999572753906,154.83399963378906 -139.97999572753906,-94.74099731445312 -139.97999572753906,-94.74099731445312 C-139.97999572753906,-94.74099731445312 109.59500122070312,-94.74099731445312 109.59500122070312,-94.74099731445312 C109.59500122070312,-94.74099731445312 109.59500122070312,154.83399963378906 109.59500122070312,154.83399963378906z">
                                                            </path>
                                                        </g>
                                                    </g>
                                                    <g style="display: block;"
                                                        transform="matrix(0.9900000095367432,0,0,0.9789400100708008,552.5989990234375,518)"
                                                        opacity="1">
                                                        <g opacity="1" transform="matrix(1,0,0,1,0,0)">
                                                            <path fill="rgb(25,84,237)" fill-opacity="1"
                                                                d=" M-14.746000289916992,-282.4100036621094 C-14.746000289916992,-282.4100036621094 109.59500122070312,-94.74099731445312 109.59500122070312,-94.74099731445312 C109.59500122070312,-94.74099731445312 -139.08700561523438,-94.74099731445312 -139.08700561523438,-94.74099731445312 C-139.08700561523438,-94.74099731445312 -14.746000289916992,-282.4100036621094 -14.746000289916992,-282.4100036621094z">
                                                            </path>
                                                        </g>
                                                    </g>
                                                    <g style="display: block;" transform="matrix(1,0,0,1,508,-629)" opacity="1">
                                                        <g opacity="1" transform="matrix(1,0,0,1,-281.1600036621094,-305.1600036621094)">
                                                            <path fill="rgb(14,50,172)" fill-opacity="1"
                                                                d=" M0,-16.84000015258789 C9.29399585723877,-16.84000015258789 16.84000015258789,-9.29399585723877 16.84000015258789,0 C16.84000015258789,9.29399585723877 9.29399585723877,16.84000015258789 0,16.84000015258789 C-9.29399585723877,16.84000015258789 -16.84000015258789,9.29399585723877 -16.84000015258789,0 C-16.84000015258789,-9.29399585723877 -9.29399585723877,-16.84000015258789 0,-16.84000015258789z">
                                                            </path>
                                                        </g>
                                                    </g>
                                                    <g style="display: block;"
                                                        transform="matrix(0.5299999713897705,0,0,0.5299999713897705,1087.8548583984375,133.5747833251953)"
                                                        opacity="1">
                                                        <g opacity="1" transform="matrix(1,0,0,1,-281.1600036621094,-305.1600036621094)">
                                                            <path fill="rgb(14,50,172)" fill-opacity="1"
                                                                d=" M0,-16.84000015258789 C9.29399585723877,-16.84000015258789 16.84000015258789,-9.29399585723877 16.84000015258789,0 C16.84000015258789,9.29399585723877 9.29399585723877,16.84000015258789 0,16.84000015258789 C-9.29399585723877,16.84000015258789 -16.84000015258789,9.29399585723877 -16.84000015258789,0 C-16.84000015258789,-9.29399585723877 -9.29399585723877,-16.84000015258789 0,-16.84000015258789z">
                                                            </path>
                                                        </g>
                                                    </g>
                                                    <g style="display: block;" transform="matrix(1,0,0,1,1038,-384.9999694824219)"
                                                        opacity="1">
                                                        <g opacity="1" transform="matrix(1,0,0,1,-281.1600036621094,-305.1600036621094)">
                                                            <path fill="rgb(14,50,172)" fill-opacity="1"
                                                                d=" M0,-16.84000015258789 C9.29399585723877,-16.84000015258789 16.84000015258789,-9.29399585723877 16.84000015258789,0 C16.84000015258789,9.29399585723877 9.29399585723877,16.84000015258789 0,16.84000015258789 C-9.29399585723877,16.84000015258789 -16.84000015258789,9.29399585723877 -16.84000015258789,0 C-16.84000015258789,-9.29399585723877 -9.29399585723877,-16.84000015258789 0,-16.84000015258789z">
                                                            </path>
                                                        </g>
                                                    </g>
                                                    <g style="display: block;" transform="matrix(1,0,0,1,412,183)" opacity="1">
                                                        <g opacity="1" transform="matrix(1,0,0,1,-281.1600036621094,-305.1600036621094)">
                                                            <path fill="rgb(54,208,180)" fill-opacity="1"
                                                                d=" M0,-16.84000015258789 C9.29399585723877,-16.84000015258789 16.84000015258789,-9.29399585723877 16.84000015258789,0 C16.84000015258789,9.29399585723877 9.29399585723877,16.84000015258789 0,16.84000015258789 C-9.29399585723877,16.84000015258789 -16.84000015258789,9.29399585723877 -16.84000015258789,0 C-16.84000015258789,-9.29399585723877 -9.29399585723877,-16.84000015258789 0,-16.84000015258789z">
                                                            </path>
                                                        </g>
                                                    </g>
                                                    <g style="display: block;"
                                                        transform="matrix(0.49000000953674316,0,0,0.49000000953674316,214.6083984375,-1266.631591796875)"
                                                        opacity="1">
                                                        <g opacity="1" transform="matrix(1,0,0,1,-281.1600036621094,-305.1600036621094)">
                                                            <path fill="rgb(255,255,255)" fill-opacity="1"
                                                                d=" M0,-16.84000015258789 C9.29399585723877,-16.84000015258789 16.84000015258789,-9.29399585723877 16.84000015258789,0 C16.84000015258789,9.29399585723877 9.29399585723877,16.84000015258789 0,16.84000015258789 C-9.29399585723877,16.84000015258789 -16.84000015258789,9.29399585723877 -16.84000015258789,0 C-16.84000015258789,-9.29399585723877 -9.29399585723877,-16.84000015258789 0,-16.84000015258789z">
                                                            </path>
                                                        </g>
                                                    </g>
                                                    <g style="display: block;" transform="matrix(1,0,0,1,1230,-861)" opacity="1">
                                                        <g opacity="1" transform="matrix(1,0,0,1,-281.1600036621094,-305.1600036621094)">
                                                            <path fill="rgb(54,208,180)" fill-opacity="1"
                                                                d=" M0,-16.84000015258789 C9.29399585723877,-16.84000015258789 16.84000015258789,-9.29399585723877 16.84000015258789,0 C16.84000015258789,9.29399585723877 9.29399585723877,16.84000015258789 0,16.84000015258789 C-9.29399585723877,16.84000015258789 -16.84000015258789,9.29399585723877 -16.84000015258789,0 C-16.84000015258789,-9.29399585723877 -9.29399585723877,-16.84000015258789 0,-16.84000015258789z">
                                                            </path>
                                                        </g>
                                                    </g>
                                                    <g style="display: block;"
                                                        transform="matrix(0.6200000047683716,0,0,0.6200000047683716,543.1591796875,-1070.9608154296875)"
                                                        opacity="1">
                                                        <g opacity="1" transform="matrix(1,0,0,1,-281.1600036621094,-305.1600036621094)">
                                                            <path fill="rgb(54,208,180)" fill-opacity="1"
                                                                d=" M0,-16.84000015258789 C9.29399585723877,-16.84000015258789 16.84000015258789,-9.29399585723877 16.84000015258789,0 C16.84000015258789,9.29399585723877 9.29399585723877,16.84000015258789 0,16.84000015258789 C-9.29399585723877,16.84000015258789 -16.84000015258789,9.29399585723877 -16.84000015258789,0 C-16.84000015258789,-9.29399585723877 -9.29399585723877,-16.84000015258789 0,-16.84000015258789z">
                                                            </path>
                                                        </g>
                                                    </g>
                                                    <g style="display: block;"
                                                        transform="matrix(0.6700000166893005,0,0,1.7400000095367432,620.074951171875,-698.0986328125)"
                                                        opacity="1">
                                                        <g opacity="1" transform="matrix(1,0,0,1,0,0)">
                                                            <path fill="rgb(14,50,172)" fill-opacity="1"
                                                                d=" M279.0150146484375,349.3389892578125 C279.0150146484375,349.3389892578125 279.0150146484375,349.3389892578125 279.0150146484375,349.3389892578125 C271.9010009765625,349.3389892578125 266.1340026855469,343.5719909667969 266.1340026855469,336.4580078125 C266.1340026855469,336.4580078125 266.1340026855469,-349.5929870605469 266.1340026855469,-349.5929870605469 C266.1340026855469,-356.7070007324219 271.9010009765625,-362.4739990234375 279.0150146484375,-362.4739990234375 C279.0150146484375,-362.4739990234375 279.0150146484375,-362.4739990234375 279.0150146484375,-362.4739990234375 C286.1289978027344,-362.4739990234375 291.8949890136719,-356.7070007324219 291.8949890136719,-349.5929870605469 C291.8949890136719,-349.5929870605469 291.8949890136719,336.4580078125 291.8949890136719,336.4580078125 C291.8949890136719,343.5719909667969 286.1289978027344,349.3389892578125 279.0150146484375,349.3389892578125z">
                                                            </path>
                                                        </g>
                                                    </g>
                                                    <g style="display: block;"
                                                        transform="matrix(0.3594599962234497,0,0,2.2457499504089355,72.72026062011719,-1176.77685546875)"
                                                        opacity="1">
                                                        <g opacity="1" transform="matrix(1,0,0,1,0,0)">
                                                            <path fill="rgb(54,208,180)" fill-opacity="1"
                                                                d=" M279.0150146484375,349.3389892578125 C279.0150146484375,349.3389892578125 279.0150146484375,349.3389892578125 279.0150146484375,349.3389892578125 C271.9010009765625,349.3389892578125 266.1340026855469,343.5719909667969 266.1340026855469,336.4580078125 C266.1340026855469,336.4580078125 266.1340026855469,-349.5929870605469 266.1340026855469,-349.5929870605469 C266.1340026855469,-356.7070007324219 271.9010009765625,-362.4739990234375 279.0150146484375,-362.4739990234375 C279.0150146484375,-362.4739990234375 279.0150146484375,-362.4739990234375 279.0150146484375,-362.4739990234375 C286.1289978027344,-362.4739990234375 291.8949890136719,-356.7070007324219 291.8949890136719,-349.5929870605469 C291.8949890136719,-349.5929870605469 291.8949890136719,336.4580078125 291.8949890136719,336.4580078125 C291.8949890136719,343.5719909667969 286.1289978027344,349.3389892578125 279.0150146484375,349.3389892578125z">
                                                            </path>
                                                        </g>
                                                    </g>
                                                    <g style="display: block;"
                                                        transform="matrix(0.4399999976158142,0,0,1.5099999904632568,752.2484130859375,-1337.6092529296875)"
                                                        opacity="1">
                                                        <g opacity="1" transform="matrix(1,0,0,1,0,0)">
                                                            <path fill="rgb(54,208,180)" fill-opacity="1"
                                                                d=" M279.0150146484375,349.3389892578125 C279.0150146484375,349.3389892578125 279.0150146484375,349.3389892578125 279.0150146484375,349.3389892578125 C271.9010009765625,349.3389892578125 266.1340026855469,343.5719909667969 266.1340026855469,336.4580078125 C266.1340026855469,336.4580078125 266.1340026855469,-349.5929870605469 266.1340026855469,-349.5929870605469 C266.1340026855469,-356.7070007324219 271.9010009765625,-362.4739990234375 279.0150146484375,-362.4739990234375 C279.0150146484375,-362.4739990234375 279.0150146484375,-362.4739990234375 279.0150146484375,-362.4739990234375 C286.1289978027344,-362.4739990234375 291.8949890136719,-356.7070007324219 291.8949890136719,-349.5929870605469 C291.8949890136719,-349.5929870605469 291.8949890136719,336.4580078125 291.8949890136719,336.4580078125 C291.8949890136719,343.5719909667969 286.1289978027344,349.3389892578125 279.0150146484375,349.3389892578125z">
                                                            </path>
                                                        </g>
                                                    </g>
                                                    <g style="display: block;"
                                                        transform="matrix(0.6000000238418579,0,0,1.6699999570846558,143.6060028076172,-1156.5584716796875)"
                                                        opacity="1">
                                                        <g opacity="1" transform="matrix(1,0,0,1,0,0)">
                                                            <path fill="rgb(255,255,255)" fill-opacity="1"
                                                                d=" M279.0150146484375,349.3389892578125 C279.0150146484375,349.3389892578125 279.0150146484375,349.3389892578125 279.0150146484375,349.3389892578125 C271.9010009765625,349.3389892578125 266.1340026855469,343.5719909667969 266.1340026855469,336.4580078125 C266.1340026855469,336.4580078125 266.1340026855469,-349.5929870605469 266.1340026855469,-349.5929870605469 C266.1340026855469,-356.7070007324219 271.9010009765625,-362.4739990234375 279.0150146484375,-362.4739990234375 C279.0150146484375,-362.4739990234375 279.0150146484375,-362.4739990234375 279.0150146484375,-362.4739990234375 C286.1289978027344,-362.4739990234375 291.8949890136719,-356.7070007324219 291.8949890136719,-349.5929870605469 C291.8949890136719,-349.5929870605469 291.8949890136719,336.4580078125 291.8949890136719,336.4580078125 C291.8949890136719,343.5719909667969 286.1289978027344,349.3389892578125 279.0150146484375,349.3389892578125z">
                                                            </path>
                                                        </g>
                                                    </g>
                                                    <g style="display: block;"
                                                        transform="matrix(0.6700000166893005,0,0,1.7400000095367432,100.074951171875,-2511.098876953125)"
                                                        opacity="1">
                                                        <g opacity="1" transform="matrix(1,0,0,1,0,0)">
                                                            <path fill="rgb(14,50,172)" fill-opacity="1"
                                                                d=" M279.0150146484375,349.3389892578125 C279.0150146484375,349.3389892578125 279.0150146484375,349.3389892578125 279.0150146484375,349.3389892578125 C271.9010009765625,349.3389892578125 266.1340026855469,343.5719909667969 266.1340026855469,336.4580078125 C266.1340026855469,336.4580078125 266.1340026855469,-349.5929870605469 266.1340026855469,-349.5929870605469 C266.1340026855469,-356.7070007324219 271.9010009765625,-362.4739990234375 279.0150146484375,-362.4739990234375 C279.0150146484375,-362.4739990234375 279.0150146484375,-362.4739990234375 279.0150146484375,-362.4739990234375 C286.1289978027344,-362.4739990234375 291.8949890136719,-356.7070007324219 291.8949890136719,-349.5929870605469 C291.8949890136719,-349.5929870605469 291.8949890136719,336.4580078125 291.8949890136719,336.4580078125 C291.8949890136719,343.5719909667969 286.1289978027344,349.3389892578125 279.0150146484375,349.3389892578125z">
                                                            </path>
                                                        </g>
                                                    </g>
                                                    <g style="display: block;"
                                                        transform="matrix(0.3594599962234497,0,0,2.2457499504089355,888.7202758789062,-2701.777099609375)"
                                                        opacity="1">
                                                        <g opacity="1" transform="matrix(1,0,0,1,0,0)">
                                                            <path fill="rgb(54,208,180)" fill-opacity="1"
                                                                d=" M279.0150146484375,349.3389892578125 C279.0150146484375,349.3389892578125 279.0150146484375,349.3389892578125 279.0150146484375,349.3389892578125 C271.9010009765625,349.3389892578125 266.1340026855469,343.5719909667969 266.1340026855469,336.4580078125 C266.1340026855469,336.4580078125 266.1340026855469,-349.5929870605469 266.1340026855469,-349.5929870605469 C266.1340026855469,-356.7070007324219 271.9010009765625,-362.4739990234375 279.0150146484375,-362.4739990234375 C279.0150146484375,-362.4739990234375 279.0150146484375,-362.4739990234375 279.0150146484375,-362.4739990234375 C286.1289978027344,-362.4739990234375 291.8949890136719,-356.7070007324219 291.8949890136719,-349.5929870605469 C291.8949890136719,-349.5929870605469 291.8949890136719,336.4580078125 291.8949890136719,336.4580078125 C291.8949890136719,343.5719909667969 286.1289978027344,349.3389892578125 279.0150146484375,349.3389892578125z">
                                                            </path>
                                                        </g>
                                                    </g>
                                                    <g style="display: block;"
                                                        transform="matrix(0.4399999976158142,0,0,1.5099999904632568,-7.751609802246094,-3770.609375)"
                                                        opacity="1">
                                                        <g opacity="1" transform="matrix(1,0,0,1,0,0)">
                                                            <path fill="rgb(54,208,180)" fill-opacity="1"
                                                                d=" M279.0150146484375,349.3389892578125 C279.0150146484375,349.3389892578125 279.0150146484375,349.3389892578125 279.0150146484375,349.3389892578125 C271.9010009765625,349.3389892578125 266.1340026855469,343.5719909667969 266.1340026855469,336.4580078125 C266.1340026855469,336.4580078125 266.1340026855469,-349.5929870605469 266.1340026855469,-349.5929870605469 C266.1340026855469,-356.7070007324219 271.9010009765625,-362.4739990234375 279.0150146484375,-362.4739990234375 C279.0150146484375,-362.4739990234375 279.0150146484375,-362.4739990234375 279.0150146484375,-362.4739990234375 C286.1289978027344,-362.4739990234375 291.8949890136719,-356.7070007324219 291.8949890136719,-349.5929870605469 C291.8949890136719,-349.5929870605469 291.8949890136719,336.4580078125 291.8949890136719,336.4580078125 C291.8949890136719,343.5719909667969 286.1289978027344,349.3389892578125 279.0150146484375,349.3389892578125z">
                                                            </path>
                                                        </g>
                                                    </g>
                                                    <g style="display: block;"
                                                        transform="matrix(0.6000000238418579,0,0,1.6699999570846558,647.6060180664062,-3497.55859375)"
                                                        opacity="1">
                                                        <g opacity="1" transform="matrix(1,0,0,1,0,0)">
                                                            <path fill="rgb(255,255,255)" fill-opacity="1"
                                                                d=" M279.0150146484375,349.3389892578125 C279.0150146484375,349.3389892578125 279.0150146484375,349.3389892578125 279.0150146484375,349.3389892578125 C271.9010009765625,349.3389892578125 266.1340026855469,343.5719909667969 266.1340026855469,336.4580078125 C266.1340026855469,336.4580078125 266.1340026855469,-349.5929870605469 266.1340026855469,-349.5929870605469 C266.1340026855469,-356.7070007324219 271.9010009765625,-362.4739990234375 279.0150146484375,-362.4739990234375 C279.0150146484375,-362.4739990234375 279.0150146484375,-362.4739990234375 279.0150146484375,-362.4739990234375 C286.1289978027344,-362.4739990234375 291.8949890136719,-356.7070007324219 291.8949890136719,-349.5929870605469 C291.8949890136719,-349.5929870605469 291.8949890136719,336.4580078125 291.8949890136719,336.4580078125 C291.8949890136719,343.5719909667969 286.1289978027344,349.3389892578125 279.0150146484375,349.3389892578125z">
                                                            </path>
                                                        </g>
                                                    </g>
                                                </g>
                                            </svg>