<svg xmlns="http://www.w3.org/2000/svg" xmlns:xlink="http://www.w3.org/1999/xlink" viewBox="0 0 1080 800" width="1080" height="800" style="width: 100%; height: 100%; transform: translate3d(0px, 0px, 0px); content-visibility: visible;" preserveAspectRatio="xMidYMid meet"><defs><clipPath id="__lottie_element_10"><rect width="1080" height="800" x="0" y="0"></rect></clipPath></defs><g clip-path="url(#__lottie_element_10)"><g style="display: block;" transform="matrix(0.7699991464614868,0,0,0.7699991464614868,-2995.10693359375,-1870.7108154296875)" opacity="1"><g opacity="1" transform="matrix(1,0,0,1,0,0)"><path fill="rgb(40,209,180)" fill-opacity="1" d=" M4948.0830078125,3354 C4948.0830078125,3354 4725.0830078125,3354 4725.0830078125,3354 C4725.0830078125,3354 4725.0830078125,3131 4725.0830078125,3131 C4725.0830078125,3131 4948.0830078125,3354 4948.0830078125,3354z"></path></g></g><g style="display: block;" transform="matrix(0.7699999809265137,0.0000022258459466684144,-0.0000022258459466684144,0.7699999809265137,-2994.932861328125,-1879.7724609375)" opacity="1"><g opacity="1" transform="matrix(1,0,0,1,0,0)"><path fill="rgb(255,255,255)" fill-opacity="1" d=" M4477.4931640625,3133.23388671875 C4527.1298828125,3182.87109375 4607.4609375,3182.87109375 4657.09814453125,3133.23388671875 C4657.09814453125,3133.23388671875 4567.294921875,3043.430908203125 4567.294921875,3043.430908203125 C4567.294921875,3043.430908203125 4477.4931640625,3133.23388671875 4477.4931640625,3133.23388671875z"></path></g></g><g style="display: block;" transform="matrix(0.7699999809265137,0,0,0.7699999809265137,-2995.43994140625,-1879.5123291015625)" opacity="1"><g opacity="1" transform="matrix(1,0,0,1,0,0)"><path fill="rgb(8,44,175)" fill-opacity="1" d=" M4725.0478515625,3201.048095703125 C4725.0478515625,3201.048095703125 4567.36376953125,3043.363037109375 4567.36376953125,3043.363037109375 C4567.36376953125,3043.363037109375 4725.0478515625,2885.677978515625 4725.0478515625,2885.677978515625 C4725.0478515625,2885.677978515625 4725.0478515625,3201.048095703125 4725.0478515625,3201.048095703125z"></path></g></g><g style="display: block;" transform="matrix(0.5049967765808105,0,0,0.5049967765808105,378.7280578613281,445.72314453125)" opacity="1"><g opacity="1" transform="matrix(1,0,0,1,5.48799991607666,31.488000869750977)"><path stroke-linecap="butt" stroke-linejoin="miter" fill-opacity="0" stroke-miterlimit="4" stroke="rgb(40,209,180)" stroke-opacity="1" stroke-width="200" d=" M70.69599914550781,-70.69599914550781 C88.7969970703125,-52.595001220703125 100,-27.594999313354492 100,0 C100,27.594999313354492 88.7979965209961,52.595001220703125 70.69599914550781,70.69599914550781"></path></g></g><g style="display: block;" transform="matrix(0.7699999809265137,0,0,0.7699999809265137,-2995.4404296875,-1879.5126953125)" opacity="1"><g opacity="1" transform="matrix(1,0,0,1,0,0)"><path fill="rgb(8,44,175)" fill-opacity="1" d=" M4545.32421875,2885.801025390625 C4545.32421875,2885.801025390625 4387.63916015625,3043.485107421875 4387.63916015625,3043.485107421875 C4387.63916015625,3043.485107421875 4229.955078125,2885.801025390625 4229.955078125,2885.801025390625 C4229.955078125,2885.801025390625 4545.32421875,2885.801025390625 4545.32421875,2885.801025390625z"></path></g></g><g style="display: block;" transform="matrix(0.7568560838699341,0,0,0.7568560838699341,-2936.844482421875,-1842.010986328125)" opacity="1"><g opacity="1" transform="matrix(1,0,0,1,0,0)"><path fill="rgb(40,209,180)" fill-opacity="1" d=" M4546.22314453125,2806.51904296875 C4546.22314453125,2850.072998046875 4510.9150390625,2885.382080078125 4467.35986328125,2885.382080078125 C4423.80517578125,2885.382080078125 4388.498046875,2850.072998046875 4388.498046875,2806.51904296875 C4388.498046875,2762.965087890625 4423.80517578125,2727.656982421875 4467.35986328125,2727.656982421875 C4510.9150390625,2727.656982421875 4546.22314453125,2762.965087890625 4546.22314453125,2806.51904296875z"></path></g></g><g style="display: block;" transform="matrix(0.7833684682846069,0,0,0.7568560838699341,-3051.998779296875,-1843.1597900390625)" opacity="1"><g opacity="1" transform="matrix(1,0,0,1,0,0)"><path fill="rgb(255,255,255)" fill-opacity="1" d=" M4387.67919921875,2885.43701171875 C4387.67919921875,2885.43701171875 4229.955078125,2885.43701171875 4229.955078125,2885.43701171875 C4229.955078125,2885.43701171875 4229.955078125,2727.7119140625 4229.955078125,2727.7119140625 C4229.955078125,2727.7119140625 4387.67919921875,2727.7119140625 4387.67919921875,2727.7119140625 C4387.67919921875,2727.7119140625 4387.67919921875,2885.43701171875 4387.67919921875,2885.43701171875z"></path></g></g><g style="display: block;" transform="matrix(0.7833684682846069,0,0,0.7699999809265137,-3052.092041015625,-1879.512451171875)" opacity="1"><g opacity="1" transform="matrix(1,0,0,1,0,0)"><path fill="rgb(40,209,180)" fill-opacity="1" d=" M4387.67919921875,2728.794921875 C4387.67919921875,2728.794921875 4229.955078125,2728.794921875 4229.955078125,2728.794921875 C4229.955078125,2728.794921875 4229.955078125,2571.070068359375 4229.955078125,2571.070068359375 C4229.955078125,2571.070068359375 4387.67919921875,2728.794921875 4387.67919921875,2728.794921875z"></path></g></g><g style="display: block;" transform="matrix(0.7699936628341675,0,0,0.7699999809265137,-2995.4140625,-1879.512451171875)" opacity="1"><g opacity="1" transform="matrix(1,0,0,1,0,0)"><path fill="rgb(40,209,180)" fill-opacity="1" d=" M4230.46923828125,2728.794921875 C4230.46923828125,2728.794921875 4072.743896484375,2728.794921875 4072.743896484375,2728.794921875 C4072.743896484375,2728.794921875 4072.743896484375,2571.070068359375 4072.743896484375,2571.070068359375 C4072.743896484375,2571.070068359375 4230.46923828125,2571.070068359375 4230.46923828125,2571.070068359375 C4230.46923828125,2571.070068359375 4230.46923828125,2728.794921875 4230.46923828125,2728.794921875z"></path></g></g><g style="display: none;" transform="matrix(0.6050000190734863,0,0,0.6050000190734863,138.1797637939453,202.5747528076172)" opacity="1"><g opacity="1" transform="matrix(1,0,0,1,5.48799991607666,31.488000869750977)"><path stroke-linecap="butt" stroke-linejoin="miter" fill-opacity="0" stroke-miterlimit="4" stroke="rgb(40,209,180)" stroke-opacity="1" stroke-width="200" d=" M-1.4450000524520874,-99.98999786376953 C-0.9639999866485596,-99.99700164794922 -0.4830000102519989,-100 0,-100"></path></g></g></g></svg>