<svg xmlns="http://www.w3.org/2000/svg"
                                                xmlns:xlink="http://www.w3.org/1999/xlink" viewBox="0 0 1080 1080" width="1080"
                                                height="1080"
                                                style="width: 100%; height: 100%; transform: translate3d(0px, 0px, 0px); content-visibility: visible;"
                                                preserveAspectRatio="xMidYMid meet">
                                                <defs>
                                                    <clipPath id="__lottie_element_733">
                                                        <rect width="1080" height="1080" x="0" y="0"></rect>
                                                    </clipPath>
                                                </defs>
                                                <g clip-path="url(#__lottie_element_733)">
                                                    <g style="display: block;"
                                                        transform="matrix(0.9999998211860657,0,0,0.9999998211860657,540.0014038085938,540.0003051757812)"
                                                        opacity="1">
                                                        <g opacity="1" transform="matrix(1,0,0,1,0,0)">
                                                            <path fill="rgb(8,44,175)" fill-opacity="1"
                                                                d=" M-179.35800170898438,118.93000030517578 C-179.35800170898438,118.93000030517578 -179.35800170898438,-120.35399627685547 -179.35800170898438,-120.35399627685547 C-179.35800170898438,-120.35399627685547 0.10499999672174454,-299.8169860839844 0.10499999672174454,-299.8169860839844 C0.10499999672174454,-299.8169860839844 0.10499999672174454,118.93000030517578 0.10499999672174454,118.93000030517578 C0.10499999672174454,118.93000030517578 -179.35800170898438,118.93000030517578 -179.35800170898438,118.93000030517578z">
                                                            </path>
                                                        </g>
                                                    </g>
                                                    <g style="display: block;"
                                                        transform="matrix(0.9999998211860657,0,0,0.9999998211860657,540.0014038085938,540.0003051757812)"
                                                        opacity="1">
                                                        <g opacity="1" transform="matrix(1,0,0,1,0,0)">
                                                            <path fill="rgb(40,209,180)" fill-opacity="1"
                                                                d=" M0.10499999672174454,-120.35399627685547 C0.10499999672174454,-120.35399627685547 239.38900756835938,-120.35399627685547 239.38900756835938,-120.35399627685547 C239.38900756835938,-120.35399627685547 239.38900756835938,2.2790000438690186 239.38900756835938,2.2790000438690186 C239.38900756835938,2.2790000438690186 0.10499999672174454,2.2790000438690186 0.10499999672174454,2.2790000438690186 C0.10499999672174454,2.2790000438690186 0.10499999672174454,-120.35399627685547 0.10499999672174454,-120.35399627685547z">
                                                            </path>
                                                        </g>
                                                    </g>
                                                    <g style="display: block;" transform="matrix(1,0,0,1,540,540)" opacity="1">
                                                        <g opacity="1" transform="matrix(1,0,0,1,0,0)">
                                                            <path fill="rgb(255,255,255)" fill-opacity="1"
                                                                d=" M299.2099914550781,298.39300537109375 C299.2099914550781,298.39300537109375 -299,298.39300537109375 -299,298.39300537109375 C-299,298.39300537109375 -299,178.75100708007812 -299,178.75100708007812 C-299,178.75100708007812 299.2099914550781,178.75100708007812 299.2099914550781,178.75100708007812 C299.2099914550781,178.75100708007812 299.2099914550781,298.39300537109375 299.2099914550781,298.39300537109375z">
                                                            </path>
                                                        </g>
                                                    </g>
                                                    <g style="display: block;"
                                                        transform="matrix(0,0,0,0,405.0509948730469,727.051025390625)" opacity="1">
                                                        <g opacity="1" transform="matrix(1,0,0,1,-136.44900512695312,183.55099487304688)">
                                                            <path fill="rgb(40,209,180)" fill-opacity="1"
                                                                d=" M0,-10.550999641418457 C5.823096752166748,-10.550999641418457 10.550999641418457,-5.823096752166748 10.550999641418457,0 C10.550999641418457,5.823096752166748 5.823096752166748,10.550999641418457 0,10.550999641418457 C-5.823096752166748,10.550999641418457 -10.550999641418457,5.823096752166748 -10.550999641418457,0 C-10.550999641418457,-5.823096752166748 -5.823096752166748,-10.550999641418457 0,-10.550999641418457z">
                                                            </path>
                                                        </g>
                                                    </g>
                                                    <g style="display: block;"
                                                        transform="matrix(0,0,0,0,509.9490051269531,718.051025390625)" opacity="1">
                                                        <g opacity="1" transform="matrix(1,0,0,1,-136.44900512695312,183.55099487304688)">
                                                            <path fill="rgb(255,255,255)" fill-opacity="1"
                                                                d=" M0,-10.550999641418457 C5.823096752166748,-10.550999641418457 10.550999641418457,-5.823096752166748 10.550999641418457,0 C10.550999641418457,5.823096752166748 5.823096752166748,10.550999641418457 0,10.550999641418457 C-5.823096752166748,10.550999641418457 -10.550999641418457,5.823096752166748 -10.550999641418457,0 C-10.550999641418457,-5.823096752166748 -5.823096752166748,-10.550999641418457 0,-10.550999641418457z">
                                                            </path>
                                                        </g>
                                                    </g>
                                                    <g style="display: block;"
                                                        transform="matrix(0,0,0,0,567.664306640625,717.7357177734375)" opacity="1">
                                                        <g opacity="1" transform="matrix(1,0,0,1,-136.44900512695312,183.55099487304688)">
                                                            <path fill="rgb(255,255,255)" fill-opacity="1"
                                                                d=" M0,-10.550999641418457 C5.823096752166748,-10.550999641418457 10.550999641418457,-5.823096752166748 10.550999641418457,0 C10.550999641418457,5.823096752166748 5.823096752166748,10.550999641418457 0,10.550999641418457 C-5.823096752166748,10.550999641418457 -10.550999641418457,5.823096752166748 -10.550999641418457,0 C-10.550999641418457,-5.823096752166748 -5.823096752166748,-10.550999641418457 0,-10.550999641418457z">
                                                            </path>
                                                        </g>
                                                    </g>
                                                    <g style="display: block;"
                                                        transform="matrix(0,0,0,0,404.335693359375,739.7357177734375)" opacity="1">
                                                        <g opacity="1" transform="matrix(1,0,0,1,-136.44900512695312,183.55099487304688)">
                                                            <path fill="rgb(255,255,255)" fill-opacity="1"
                                                                d=" M0,-10.550999641418457 C5.823096752166748,-10.550999641418457 10.550999641418457,-5.823096752166748 10.550999641418457,0 C10.550999641418457,5.823096752166748 5.823096752166748,10.550999641418457 0,10.550999641418457 C-5.823096752166748,10.550999641418457 -10.550999641418457,5.823096752166748 -10.550999641418457,0 C-10.550999641418457,-5.823096752166748 -5.823096752166748,-10.550999641418457 0,-10.550999641418457z">
                                                            </path>
                                                        </g>
                                                    </g>
                                                    <g style="display: block;" transform="matrix(0,0,0,0,578.948974609375,727.051025390625)"
                                                        opacity="1">
                                                        <g opacity="1" transform="matrix(1,0,0,1,-136.44900512695312,183.55099487304688)">
                                                            <path fill="rgb(40,209,180)" fill-opacity="1"
                                                                d=" M0,-10.550999641418457 C5.823096752166748,-10.550999641418457 10.550999641418457,-5.823096752166748 10.550999641418457,0 C10.550999641418457,5.823096752166748 5.823096752166748,10.550999641418457 0,10.550999641418457 C-5.823096752166748,10.550999641418457 -10.550999641418457,5.823096752166748 -10.550999641418457,0 C-10.550999641418457,-5.823096752166748 -5.823096752166748,-10.550999641418457 0,-10.550999641418457z">
                                                            </path>
                                                        </g>
                                                    </g>
                                                </g>
                                            </svg>